<mxfile host="app.diagrams.net" modified="2023-10-04T14:54:59.085Z" agent="Mozilla/5.0 (Macintosh; Intel Mac OS X 10_15_7) AppleWebKit/537.36 (KHTML, like Gecko) Chrome/117.0.0.0 Safari/537.36" version="22.0.2" etag="3oJKWuTJT68G-5dfcaxd" type="github">
  <diagram name="Page-1" id="ZQsP3g-sU3F0ftTN4eH7">
    <mxGraphModel>
      <root>
        <mxCell id="0" />
        <mxCell id="1" parent="0" />
      </root>
    </mxGraphModel>
  </diagram>
</mxfile>
